<svg width="16" height="16" viewBox="0 0 16 16" fill="none" xmlns="http://www.w3.org/2000/svg">
<path d="M9.58874 4.38657C9.24995 4.32047 8.92172 4.54153 8.85562 4.88032C8.78952 5.21911 9.01058 5.54734 9.34937 5.61344L9.58874 4.38657ZM10.8306 7.09469C10.8967 7.43348 11.2249 7.65454 11.5637 7.58844C11.9025 7.52234 12.1236 7.19411 12.0575 6.85532L10.8306 7.09469ZM12.9441 12.46H12.3191L12.3191 12.4625L12.9441 12.46ZM11.8541 13.46L11.7865 14.0814L11.7978 14.0825L11.8541 13.46ZM7.53906 11.925L7.87914 11.4006L7.87426 11.3975L7.53906 11.925ZM4.53906 8.925L5.06659 8.58979L5.06361 8.58519L4.53906 8.925ZM3.00406 4.59L2.38152 4.64626L2.38256 4.656L3.00406 4.59ZM3.99906 3.5V2.875L3.99847 2.875L3.99906 3.5ZM5.49906 3.5V4.12503L5.50521 4.12497L5.49906 3.5ZM6.49906 4.36L7.11872 4.27828L7.11791 4.27253L6.49906 4.36ZM6.84906 5.765L6.2635 5.98351L6.26403 5.98492L6.84906 5.765ZM6.62406 6.82L7.06601 7.26195L7.06847 7.25947L6.62406 6.82ZM5.98906 7.455L5.54712 7.01306C5.34817 7.21201 5.30668 7.51936 5.44575 7.76394L5.98906 7.455ZM8.98906 10.455L8.68013 10.9983C8.92471 11.1374 9.23206 11.0959 9.431 10.8969L8.98906 10.455ZM9.62406 9.82L9.18459 9.37559L9.18212 9.37806L9.62406 9.82ZM10.6791 9.595L10.4591 10.18L10.4606 10.1806L10.6791 9.595ZM12.0841 9.945L12.1714 9.32611L12.1658 9.32537L12.0841 9.945ZM9.34937 5.61344C10.0986 5.75962 10.6844 6.34544 10.8306 7.09469L12.0575 6.85532C11.8139 5.60658 10.8375 4.63021 9.58874 4.38657L9.34937 5.61344ZM12.3191 10.96V12.46H13.5691V10.96H12.3191ZM12.3191 12.4625C12.3195 12.5681 12.2754 12.669 12.1976 12.7404L13.0426 13.6615C13.3798 13.3522 13.5709 12.915 13.5691 12.4575L12.3191 12.4625ZM12.1976 12.7404C12.1198 12.8118 12.0155 12.847 11.9103 12.8375L11.7978 14.0825C12.2535 14.1237 12.7055 13.9708 13.0426 13.6615L12.1976 12.7404ZM11.9216 12.8387C10.4802 12.682 9.09561 12.1895 7.87913 11.4006L7.199 12.4494C8.57952 13.3447 10.1508 13.9036 11.7865 14.0813L11.9216 12.8387ZM7.87426 11.3975C6.74362 10.679 5.78503 9.72045 5.06657 8.5898L4.01155 9.2602C4.82843 10.5457 5.91833 11.6356 7.20386 12.4525L7.87426 11.3975ZM5.06361 8.58519C4.27197 7.36318 3.77932 5.97188 3.62557 4.524L2.38256 4.656C2.55704 6.29912 3.11613 7.87803 4.01451 9.26482L5.06361 8.58519ZM3.62653 4.53375C3.61705 4.42892 3.65208 4.32493 3.72304 4.24718L2.79985 3.40445C2.49232 3.74133 2.34055 4.19196 2.3816 4.64625L3.62653 4.53375ZM3.72304 4.24718C3.79401 4.16944 3.89439 4.1251 3.99965 4.125L3.99847 2.875C3.54233 2.87543 3.10737 3.06756 2.79985 3.40445L3.72304 4.24718ZM3.99906 4.125H5.49906V2.875H3.99906V4.125ZM5.50521 4.12497C5.69344 4.12312 5.85387 4.26109 5.88021 4.44747L7.11791 4.27253C7.00376 3.46488 6.30855 2.86701 5.49291 2.87503L5.50521 4.12497ZM5.87943 4.44173C5.9489 4.96849 6.07775 5.48571 6.2635 5.98351L7.43462 5.5465C7.28183 5.13703 7.17584 4.71158 7.1187 4.27828L5.87943 4.44173ZM6.26403 5.98492C6.31554 6.12196 6.28259 6.27644 6.17965 6.38054L7.06847 7.25947C7.51454 6.80837 7.65732 6.13893 7.43409 5.54509L6.26403 5.98492ZM6.18212 6.37806L5.54712 7.01306L6.431 7.89694L7.066 7.26195L6.18212 6.37806ZM5.44575 7.76394C6.21314 9.11351 7.33056 10.2309 8.68013 10.9983L9.298 9.91169C8.14402 9.25552 7.18854 8.30005 6.53237 7.14607L5.44575 7.76394ZM9.431 10.8969L10.066 10.2619L9.18212 9.37806L8.54712 10.0131L9.431 10.8969ZM10.0635 10.2644C10.1676 10.1615 10.3221 10.1285 10.4591 10.18L10.899 9.00997C10.3051 8.78675 9.63569 8.92952 9.1846 9.3756L10.0635 10.2644ZM10.4606 10.1806C10.9584 10.3663 11.4756 10.4952 12.0023 10.5646L12.1658 9.32537C11.7325 9.26822 11.307 9.16224 10.8976 9.00944L10.4606 10.1806ZM11.9968 10.5639C12.1853 10.5905 12.324 10.7541 12.3193 10.9445L13.5689 10.9755C13.5893 10.1507 12.9884 9.44139 12.1714 9.32613L11.9968 10.5639Z" fill="#3A3A3A"/>
<path d="M9.46875 3C11.5585 3.23216 13.209 4.88052 13.4437 6.97" stroke="#8DD520" stroke-width="1.25" stroke-linecap="round" stroke-linejoin="bevel"/>
</svg>
