<svg width="32" height="32" viewBox="0 0 32 32" fill="none" xmlns="http://www.w3.org/2000/svg">
<circle cx="16" cy="16" r="16" fill="#F25D22"/>
<path d="M13.3984 8.50863C16.3667 12.8197 18.6989 17.6962 20.2538 22.7846" stroke="#8DD520" stroke-width="1.76683" stroke-miterlimit="10" stroke-linecap="round" stroke-linejoin="round"/>
<path d="M8.09863 15.2226C12.5511 15.6466 17.3568 14.1625 22.1626 10.9115" stroke="white" stroke-width="1.76683" stroke-miterlimit="10" stroke-linecap="round" stroke-linejoin="round"/>
<path d="M10.5723 21.7952C13.1165 18.3322 17.1449 16 21.5973 16C22.3747 16 23.1521 16.0707 24.0002 16.212" stroke="white" stroke-width="1.76683" stroke-miterlimit="10" stroke-linecap="round" stroke-linejoin="round"/>
<path d="M16.015 23.9154C20.3968 23.9154 23.9304 20.3817 23.9304 16C23.9304 11.6183 20.3968 8.08459 16.015 8.08459C11.6333 8.08459 8.09961 11.6183 8.09961 16C8.09961 20.3817 11.6333 23.9154 16.015 23.9154Z" stroke="white" stroke-width="1.76683" stroke-miterlimit="10" stroke-linecap="round" stroke-linejoin="round"/>
</svg>
