<svg width="32" height="32" viewBox="0 0 32 32" fill="none" xmlns="http://www.w3.org/2000/svg">
<circle cx="16" cy="16" r="16" fill="#6B73B3"/>
<path d="M19.9395 12.4892C21.1206 12.4892 22.2395 12.9243 23.0477 13.7946C23.8558 14.6027 24.3531 15.7216 24.3531 16.9027V22H21.3693V16.9027C21.3693 16.5297 21.2449 16.1568 20.9341 15.8459C20.6855 15.5973 20.3125 15.4108 19.8774 15.4108C19.5044 15.4108 19.1314 15.5351 18.8206 15.8459C18.572 16.0946 18.3855 16.4676 18.3855 16.9027V22H15.4639V16.9027C15.4639 15.7216 15.899 14.6027 16.7693 13.7946C17.6395 12.9243 18.7585 12.4892 19.9395 12.4892Z" stroke="white" stroke-width="1.7" stroke-linecap="round" stroke-linejoin="round"/>
<path d="M12.6667 13.2351H9.74512V22H12.6667V13.2351Z" stroke="white" stroke-width="1.7" stroke-linecap="round" stroke-linejoin="round"/>
<path d="M11.1748 11.0595C11.983 11.0595 12.6046 10.4378 12.6046 9.62973C12.6046 8.82162 11.983 8.2 11.1748 8.2C10.3667 8.2 9.74512 8.82162 9.74512 9.62973C9.74512 10.3757 10.3667 11.0595 11.1748 11.0595Z" stroke="#8DD520" stroke-width="1.7" stroke-linecap="round" stroke-linejoin="round"/>
</svg>
