<svg width="32" height="32" viewBox="0 0 32 32" fill="none" xmlns="http://www.w3.org/2000/svg">
<path d="M20.7 11.8999C22.6 11.8999 24.4 12.5999 25.7 13.9999C27 15.2999 27.8 17.0999 27.8 18.9999V27.1999H23V18.9999C23 18.3999 22.8 17.7999 22.3 17.2999C21.9 16.8999 21.3 16.5999 20.6 16.5999C20 16.5999 19.4 16.7999 18.9 17.2999C18.5 17.6999 18.2 18.2999 18.2 18.9999V27.1999H13.5V18.9999C13.5 17.0999 14.2 15.2999 15.6 13.9999C17 12.5999 18.8 11.8999 20.7 11.8999Z" stroke="white" stroke-width="2.5" stroke-linecap="round" stroke-linejoin="round"/>
<path d="M8.9998 13.1001H4.2998V27.2001H8.9998V13.1001Z" stroke="white" stroke-width="2.5" stroke-linecap="round" stroke-linejoin="round"/>
<path d="M6.5998 9.6C7.8998 9.6 8.8998 8.6 8.8998 7.3C8.8998 6 7.8998 5 6.5998 5C5.2998 5 4.2998 6 4.2998 7.3C4.2998 8.5 5.2998 9.6 6.5998 9.6Z" stroke="#8DD520" stroke-width="2.5" stroke-linecap="round" stroke-linejoin="round"/>
</svg>
