<svg width="16" height="16" viewBox="0 0 16 16" fill="none" xmlns="http://www.w3.org/2000/svg">
<path d="M12.35 3.3H3.65C3.1 3.3 2.55 3.55 2.15 3.95C1.75 4.35 1.5 4.9 1.5 5.45V10.55C1.5 11.1 1.75 11.65 2.15 12.05C2.55 12.45 3.1 12.7 3.65 12.7H12.4C12.95 12.7 13.5 12.45 13.9 12.05C14.3 11.65 14.55 11.1 14.55 10.55V5.45C14.55 4.9 14.3 4.35 13.9 3.95C13.45 3.55 12.95 3.3 12.35 3.3Z" stroke="#3A3A3A" stroke-width="1.25" stroke-miterlimit="10"/>
<path d="M4.0498 6L7.8498 9.05" stroke="#3A3A3A" stroke-width="1.25" stroke-miterlimit="10" stroke-linecap="round"/>
<path d="M11.6996 6L7.84961 9.05" stroke="#8DD520" stroke-width="1.25" stroke-miterlimit="10" stroke-linecap="round"/>
</svg>
